{"asset":{"version":"2.0","generator":"Blockbench 4.3.1 glTF exporter"},"scenes":[{"nodes":[5],"name":"blockbench_export"}],"scene":0,"nodes":[{"translation":[-1,0,-0.4375],"name":"base","mesh":0},{"translation":[0,0.5625,-0.5],"name":"lid","mesh":1},{"translation":[0,0.5625,-0.5],"name":"knob","mesh":2},{"translation":[-1,-0.5625,0.0625],"name":"lid","children":[1,2]},{"rotation":[-1,0,0,6.123233995736766e-17],"translation":[1,0,0.4375],"name":"base","children":[0,3]},{"children":[4]}],"bufferViews":[{"buffer":0,"byteOffset":0,"byteLength":576,"target":34962,"byteStride":12},{"buffer":0,"byteOffset":576,"byteLength":576,"target":34962,"byteStride":12},{"buffer":0,"byteOffset":1152,"byteLength":384,"target":34962,"byteStride":8},{"buffer":0,"byteOffset":1536,"byteLength":144,"target":34963},{"buffer":0,"byteOffset":1680,"byteLength":576,"target":34962,"byteStride":12},{"buffer":0,"byteOffset":2256,"byteLength":576,"target":34962,"byteStride":12},{"buffer":0,"byteOffset":2832,"byteLength":384,"target":34962,"byteStride":8},{"buffer":0,"byteOffset":3216,"byteLength":144,"target":34963},{"buffer":0,"byteOffset":3360,"byteLength":576,"target":34962,"byteStride":12},{"buffer":0,"byteOffset":3936,"byteLength":576,"target":34962,"byteStride":12},{"buffer":0,"byteOffset":4512,"byteLength":384,"target":34962,"byteStride":8},{"buffer":0,"byteOffset":4896,"byteLength":144,"target":34963}],"buffers":[{"byteLength":5040,"uri":"data:application/octet-stream;base64,"}],"accessors":[{"bufferView":0,"componentType":5126,"count":48,"max":[0.9375,0,1.375],"min":[-0.9375,-0.625,0.5],"type":"VEC3"},{"bufferView":1,"componentType":5126,"count":48,"max":[1,1,1],"min":[-1,-1,-1],"type":"VEC3"},{"bufferView":2,"componentType":5126,"count":48,"max":[0.90625,0.703125],"min":[0,0.328125],"type":"VEC2"},{"bufferView":3,"componentType":5123,"count":72,"max":[47],"min":[0],"type":"SCALAR"},{"bufferView":4,"componentType":5126,"count":48,"max":[0.9375,-0.5625,1.375],"min":[-0.9375,-0.875,0.5],"type":"VEC3"},{"bufferView":5,"componentType":5126,"count":48,"max":[1,1,1],"min":[-1,-1,-1],"type":"VEC3"},{"bufferView":6,"componentType":5126,"count":48,"max":[0.90625,1],"min":[0,0.703125],"type":"VEC2"},{"bufferView":7,"componentType":5123,"count":72,"max":[47],"min":[0],"type":"SCALAR"},{"bufferView":8,"componentType":5126,"count":48,"max":[0.0625,-0.4375,1.4375],"min":[-0.0625,-0.6875,1.375],"type":"VEC3"},{"bufferView":9,"componentType":5126,"count":48,"max":[1,1,1],"min":[-1,-1,-1],"type":"VEC3"},{"bufferView":10,"componentType":5126,"count":48,"max":[0.0625,1],"min":[0,0.921875],"type":"VEC2"},{"bufferView":11,"componentType":5123,"count":72,"max":[47],"min":[0],"type":"SCALAR"}],"materials":[{"pbrMetallicRoughness":{"metallicFactor":0,"roughnessFactor":1,"baseColorTexture":{"index":0}},"alphaMode":"MASK","alphaCutoff":0.05,"doubleSided":true},{"pbrMetallicRoughness":{"metallicFactor":0,"roughnessFactor":1,"baseColorTexture":{"index":1}},"alphaMode":"MASK","alphaCutoff":0.05,"doubleSided":true}],"textures":[{"sampler":0,"source":0,"name":"chest_large without knob.png"},{"sampler":1,"source":1,"name":"chest_large just knob.png"}],"samplers":[{"magFilter":9728,"minFilter":9728,"wrapS":33071,"wrapT":33071},{"magFilter":9728,"minFilter":9728,"wrapS":33071,"wrapT":33071}],"images":[{"mimeType":"image/png","uri":"data:image/png;base64,"},{"mimeType":"image/png","uri":"data:image/png;base64,"}],"meshes":[{"primitives":[{"mode":4,"attributes":{"POSITION":0,"NORMAL":1,"TEXCOORD_0":2},"indices":3,"material":0}]},{"primitives":[{"mode":4,"attributes":{"POSITION":4,"NORMAL":5,"TEXCOORD_0":6},"indices":7,"material":0}]},{"primitives":[{"mode":4,"attributes":{"POSITION":8,"NORMAL":9,"TEXCOORD_0":10},"indices":11,"material":1}]}]}